<svg width="528" height="528" viewBox="0 0 528 528" fill="none" xmlns="http://www.w3.org/2000/svg">
<path fill-rule="evenodd" clip-rule="evenodd" d="M264 525C408.146 525 525 408.146 525 264C525 119.854 408.146 3 264 3C119.854 3 3 119.854 3 264C3 408.146 119.854 525 264 525Z" stroke="#C8E6D1" stroke-width="6" stroke-dasharray="1 6"/>
<path fill-rule="evenodd" clip-rule="evenodd" d="M463 264C463 373.905 373.905 463 264 463C154.095 463 65 373.905 65 264C65 154.095 154.095 65 264 65C373.905 65 463 154.095 463 264ZM398 264.5C398 338.23 338.23 398 264.5 398C190.77 398 131 338.23 131 264.5C131 190.77 190.77 131 264.5 131C338.23 131 398 190.77 398 264.5Z" fill="#EBF3ED"/>
</svg>
