<svg xmlns="http://www.w3.org/2000/svg" width="164.9398504004132" height="37.99248130005162" fill="none"><rect id="backgroundrect" width="100%" height="100%" x="0" y="0" fill="none" stroke="none" class="selected" style=""/>

<g class="currentLayer" style=""><title>Layer 1</title><g id="Logo">
<path id="Path_716" fill-rule="evenodd" clip-rule="evenodd" d="M15.7567 0C7.05451 0 0 7.05462 0 15.7569C0 24.4593 7.05451 31.5139 15.7567 31.5139H18.908C19.7773 31.5114 20.4812 30.8072 20.4834 29.9379V27.5522H15.7562C13.514 27.5548 11.3177 26.9172 9.42547 25.7144C9.18788 25.5634 9.0489 25.2971 9.06087 25.0158C9.07284 24.7346 9.23396 24.4811 9.48352 24.3508C9.73308 24.2206 10.0332 24.2333 10.2708 24.3843C11.9104 25.4265 13.8134 25.9788 15.7562 25.9763H20.4834V23.6342C20.4807 22.7653 19.7769 22.0617 18.908 22.0592H15.7567C12.2758 22.0592 9.45401 19.2374 9.45401 15.7564C9.45401 12.2755 12.2758 9.45366 15.7567 9.45366C19.2376 9.45366 22.0594 12.2755 22.0594 15.7564V29.9374C22.0616 30.8069 22.7658 31.5112 23.6353 31.5134H29.9365C30.8062 31.5109 31.5109 30.8067 31.5139 29.9369V15.7574C31.5139 7.05485 24.4591 0 15.7567 0ZM22.3128 6.8306C22.0857 7.18787 21.612 7.29346 21.2546 7.06646C17.1966 4.49485 11.8978 5.08162 8.50068 8.47878C5.10357 11.8759 4.51681 17.1748 7.08838 21.2329C7.24204 21.464 7.25873 21.7601 7.13203 22.007C7.00532 22.2539 6.75503 22.413 6.4777 22.4229C6.20038 22.4328 5.93938 22.2919 5.7954 22.0547C2.83843 17.3909 3.51217 11.2999 7.41694 7.39503C11.3217 3.4902 17.4126 2.81644 22.0764 5.77346C22.4331 6.00052 22.5386 6.47346 22.3123 6.8306H22.3128ZM26.7864 27.553C27.2216 27.553 27.5743 27.2002 27.5743 26.765V15.7339C27.5769 13.4917 26.9393 11.2954 25.7365 9.40309C25.5855 9.16549 25.3192 9.02651 25.038 9.03848C24.7567 9.05045 24.5032 9.21157 24.373 9.46114C24.2427 9.7107 24.2555 10.0108 24.4065 10.2484C25.4487 11.888 26.001 13.7911 25.9984 15.7339V26.765C25.9984 27.2002 26.3512 27.553 26.7864 27.553Z" fill="white"/>
<path id="UPQODE" d="M47.016 22.076V10.344H51.804V22.076C51.804 23.252 52.0933 24.1573 52.672 24.792C53.2507 25.4267 54.1 25.744 55.22 25.744C56.34 25.744 57.1987 25.4267 57.796 24.792C58.3933 24.1573 58.692 23.252 58.692 22.076V10.344H63.48V22.076C63.48 23.812 63.0693 25.3147 62.248 26.584C61.4453 27.8347 60.4187 28.7493 59.168 29.328C57.936 29.9067 56.592 30.196 55.136 30.196C52.8587 30.196 50.936 29.4867 49.368 28.068C47.8 26.6493 47.016 24.652 47.016 22.076ZM82.5605 16.364C82.5605 17.6893 82.0845 18.968 81.1325 20.2C80.6285 20.8347 79.8725 21.3573 78.8645 21.768C77.8751 22.16 76.6991 22.356 75.3365 22.356H72.3685V30H67.5805V10.344H75.3365C77.6138 10.344 79.3871 10.932 80.6565 12.108C81.9258 13.284 82.5605 14.7027 82.5605 16.364ZM72.3685 18.716H75.3365C76.0645 18.716 76.6338 18.5013 77.0445 18.072C77.4738 17.6427 77.6885 17.0827 77.6885 16.392C77.6885 15.6827 77.4738 15.104 77.0445 14.656C76.6151 14.208 76.0458 13.984 75.3365 13.984H72.3685V18.716ZM94.3679 30.196C91.5493 30.196 89.1599 29.244 87.1999 27.34C85.2586 25.436 84.2879 23.028 84.2879 20.116C84.2879 17.204 85.2586 14.8053 87.1999 12.92C89.1599 11.016 91.5493 10.064 94.3679 10.064C97.2053 10.064 99.5853 11.016 101.508 12.92C103.449 14.8053 104.42 17.204 104.42 20.116C104.42 21.7587 104.084 23.2707 103.412 24.652C102.759 26.0147 101.853 27.1533 100.696 28.068L104.7 33.22H98.9039L96.5239 29.972C95.7773 30.1213 95.0586 30.196 94.3679 30.196ZM90.5599 16C89.6266 17.0267 89.1599 18.3987 89.1599 20.116C89.1599 21.8333 89.6266 23.2053 90.5599 24.232C91.5119 25.2587 92.7719 25.772 94.3399 25.772C95.9266 25.772 97.1866 25.2587 98.1199 24.232C99.0719 23.2053 99.5479 21.8333 99.5479 20.116C99.5479 18.3987 99.0719 17.0267 98.1199 16C97.1866 14.9733 95.9266 14.46 94.3399 14.46C92.7719 14.46 91.5119 14.9733 90.5599 16ZM120.35 24.232C121.302 23.2053 121.778 21.8333 121.778 20.116C121.778 18.3987 121.302 17.0267 120.35 16C119.417 14.9733 118.157 14.46 116.57 14.46C115.002 14.46 113.742 14.9733 112.79 16C111.857 17.0267 111.39 18.3987 111.39 20.116C111.39 21.8333 111.857 23.2053 112.79 24.232C113.742 25.2587 115.002 25.772 116.57 25.772C118.157 25.772 119.417 25.2587 120.35 24.232ZM109.43 27.34C107.489 25.436 106.518 23.028 106.518 20.116C106.518 17.204 107.489 14.8053 109.43 12.92C111.39 11.016 113.78 10.064 116.598 10.064C119.436 10.064 121.816 11.016 123.738 12.92C125.68 14.8053 126.65 17.204 126.65 20.116C126.65 23.028 125.68 25.436 123.738 27.34C121.797 29.244 119.417 30.196 116.598 30.196C113.78 30.196 111.39 29.244 109.43 27.34ZM134.521 26.36H136.649C138.478 26.36 139.915 25.8 140.961 24.68C142.006 23.56 142.529 22.0573 142.529 20.172C142.529 18.2867 142.006 16.784 140.961 15.664C139.915 14.544 138.478 13.984 136.649 13.984H134.521V26.36ZM136.649 10.344C139.785 10.344 142.361 11.2587 144.377 13.088C146.393 14.8987 147.401 17.26 147.401 20.172C147.401 23.0653 146.393 25.4267 144.377 27.256C142.361 29.0853 139.785 30 136.649 30H129.733V10.344H136.649ZM162.332 10.288V13.928H155.22V18.156H161.492V21.796H155.22V26.36H162.332V30H150.432V10.288H162.332Z" fill="white"/>
</g></g></svg>