<svg width="73" height="73" viewBox="0 0 73 73" fill="none" xmlns="http://www.w3.org/2000/svg">
<g id="1">
<path id="Oval 2" opacity="0.2" fill-rule="evenodd" clip-rule="evenodd" d="M36.5 73C56.6584 73 73 56.6584 73 36.5C73 16.3416 56.6584 0 36.5 0C16.3416 0 0 16.3416 0 36.5C0 56.6584 16.3416 73 36.5 73Z" fill="#00A031"/>
<path id="Oval 2_2" opacity="0.3" fill-rule="evenodd" clip-rule="evenodd" d="M36.5 53C45.6127 53 53 45.6127 53 36.5C53 27.3873 45.6127 20 36.5 20C27.3873 20 20 27.3873 20 36.5C20 45.6127 27.3873 53 36.5 53Z" fill="#00A031"/>
<path id="Oval 2_3" fill-rule="evenodd" clip-rule="evenodd" d="M37 42C40.3137 42 43 39.3137 43 36C43 32.6863 40.3137 30 37 30C33.6863 30 31 32.6863 31 36C31 39.3137 33.6863 42 37 42Z" fill="#00A031"/>
</g>
</svg>
